<svg id="Capa_1" enable-background="new 0 0 497 497" height="512" viewBox="0 0 497 497" width="512" xmlns="http://www.w3.org/2000/svg"><path d="m477.768 172.742h-39.932c-4.142 0-7.5 3.358-7.5 7.5s3.358 7.5 7.5 7.5h12.466v30.652c0 4.142 3.357 7.5 7.5 7.5 4.142 0 7.5-3.358 7.5-7.5v-30.652h12.466c4.143 0 7.5-3.358 7.5-7.5s-3.358-7.5-7.5-7.5z" fill="#8d9ca8"/><path d="m470.196 208.395h-70.164v31.627h67.589c1.422 0 2.575 1.153 2.575 2.575v17.621c0 4.931 3.997 8.928 8.928 8.928h8.947c4.931 0 8.928-3.997 8.928-8.928v-36.953c0-8.212-6.657-14.869-14.87-14.869h-11.933z" fill="#fece85"/><path d="m205.536 330.12h-.106-116.274v100.274c0 4.305 3.49 7.795 7.795 7.795h36.159c3.017 0 5.763-1.741 7.05-4.47l5.149-10.916c4.475-9.487 14.022-15.539 24.511-15.539h35.61.106 35.61c10.489 0 20.036 6.053 24.511 15.539l5.149 10.916c1.287 2.729 4.033 4.47 7.05 4.47h36.159c4.305 0 7.795-3.49 7.795-7.795v-100.274z" fill="#8d9ca8"/><path d="m115.309 422.803-5.149 10.916c-1.287 2.729-4.033 4.47-7.05 4.47h30c3.017 0 5.763-1.741 7.05-4.47l5.149-10.916c4.475-9.487 14.022-15.539 24.51-15.539h-30c-10.488-.001-20.036 6.052-24.51 15.539z" fill="#7a8c98"/><path d="m291.81 330.12v100.274c0 4.305-3.49 7.795-7.795 7.795h30c4.305 0 7.795-3.49 7.795-7.795v-100.274z" fill="#7a8c98"/><path d="m349.592 98.794c-6.121-3.695-12.35 2.866-18.67-.317-6.508-3.277-13.114-16.283-19.802-19.018-67.1-27.434-142.404-27.531-209.561-.289-7.048 2.859-14.005 16.019-20.854 19.48-6.202 3.134-12.316-3.485-18.326.143l-44.32 26.752c-6.801 4.106-11.285 11.162-12.114 19.063l-4.088 38.987c-2.476 23.618-2.476 47.429 0 71.047l4.088 38.987c.828 7.901 5.312 14.957 12.114 19.063l44.32 26.752c6.533 3.943 13.188-2.405 19.946.955s13.621 16.428 20.569 19.205c66.819 26.702 141.571 26.427 208.227-.826 6.591-2.695 13.103-15.653 19.52-18.876 6.417-3.222 12.74 3.292 18.952-.458l44.32-26.752c6.801-4.105 11.285-11.162 12.114-19.063l4.088-38.987c2.476-23.617 2.476-47.429 0-71.047l-4.088-38.987c-.828-7.901-5.312-14.957-12.114-19.063z" fill="#dc8758"/><path d="m410.113 183.597-4.088-38.987c-.828-7.901-5.312-14.957-12.114-19.063l-44.32-26.752c-48.6-29.336-103.943-42.522-158.607-39.571 44.671 2.412 88.891 15.597 128.607 39.571l44.32 26.752c6.801 4.106 11.285 11.162 12.114 19.063l4.088 38.987c2.476 23.617 2.476 47.429 0 71.047l-4.088 38.987c-.828 7.901-5.312 14.957-12.114 19.063l-44.32 26.753c-39.716 23.974-83.935 37.16-128.607 39.571 54.664 2.951 110.006-10.235 158.607-39.571l44.32-26.753c6.801-4.105 11.285-11.162 12.114-19.063l4.088-38.987c2.476-23.618 2.476-47.43 0-71.047z" fill="#cf7a47"/><g fill="#c86d36"><path d="m18.145 163.463c-3.138 0-6.063-1.984-7.112-5.124-1.314-3.929.807-8.178 4.735-9.491l43.456-14.53c1.591-.532 3.186-1.054 4.786-1.568 3.945-1.266 8.168.903 9.435 4.847s-.903 8.168-4.847 9.435c-1.546.497-3.086 1.002-4.62 1.514l-43.454 14.529c-.788.263-1.59.388-2.379.388z"/><path d="m88.2 141.641c-3.478.001-6.597-2.432-7.334-5.972-.846-4.055 1.757-8.027 5.812-8.872 70.359-14.661 167.874-15.686 238.267-1.072 4.056.842 6.661 4.812 5.819 8.868-.842 4.057-4.812 6.662-8.868 5.819-68.424-14.205-163.769-13.18-232.157 1.07-.517.107-1.032.159-1.539.159z"/><path d="m395.422 163.465c-.788 0-1.59-.125-2.379-.389l-43.457-14.53c-1.536-.513-3.079-1.019-4.627-1.516-3.943-1.267-6.113-5.491-4.847-9.435 1.267-3.945 5.492-6.114 9.435-4.847 1.604.516 3.202 1.039 4.795 1.571l43.457 14.53c3.929 1.314 6.049 5.563 4.735 9.491-1.05 3.141-3.974 5.125-7.112 5.125z"/><path d="m347.252 300.833c-3.156 0-6.093-2.008-7.127-5.17-1.288-3.937.859-8.172 4.796-9.461.772-.252 1.543-.508 2.313-.765l43.457-14.53c3.927-1.313 8.178.807 9.491 4.734 1.313 3.929-.807 8.178-4.735 9.491l-43.457 14.53c-.799.268-1.601.533-2.404.796-.776.255-1.562.375-2.334.375z"/><path d="m205.984 324.457c-37.036 0-84.066-5.671-119.307-13.014-4.055-.845-6.657-4.817-5.813-8.872.846-4.055 4.812-6.657 8.873-5.813 68.39 14.249 158.762 19.211 232.157-1.93 3.978-1.146 8.025 1.764 8.868 5.819.842 4.056-1.764 8.026-5.819 8.868-35.133 7.295-82.049 14.942-118.959 14.942z"/><path d="m66.81 301.754c-.757 0-1.525-.115-2.284-.358-1.774-.567-3.542-1.145-5.301-1.733l-43.456-14.53c-3.929-1.314-6.049-5.563-4.735-9.491 1.313-3.928 5.561-6.05 9.491-4.734l43.456 14.53c1.696.567 3.399 1.124 5.109 1.67 3.946 1.26 6.123 5.481 4.862 9.427-1.018 3.186-3.968 5.219-7.142 5.219z"/><path d="m347.243 257.629c-3.677 0-6.888-2.707-7.417-6.453-.579-4.101 2.276-7.895 6.378-8.475l43.457-6.136c4.093-.579 7.895 2.275 8.476 6.378.579 4.101-2.276 7.895-6.378 8.475l-43.457 6.136c-.356.051-.71.075-1.059.075z"/><path d="m271.289 266.285c-3.968 0-7.28-3.111-7.484-7.118-.211-4.137 2.972-7.662 7.108-7.873 15.938-.813 31.708-1.936 46.872-3.338 4.119-.38 7.776 2.653 8.158 6.778s-2.653 7.777-6.777 8.159c-15.368 1.42-31.346 2.559-47.489 3.382-.13.007-.26.01-.388.01z"/><path d="m206.19 267.928c-38.59 0-77.1-1.693-113.031-5.002-4.125-.38-7.161-4.031-6.781-8.156.38-4.124 4.037-7.159 8.156-6.78 46.114 4.247 96.562 5.797 145.891 4.486 4.142-.074 7.586 3.157 7.696 7.298s-3.157 7.586-7.298 7.697c-11.502.305-23.075.457-34.633.457z"/><path d="m69.897 259.103c-.336 0-.674-.022-1.016-.069-1.641-.222-3.274-.448-4.902-.678l-46.883-6.619c-4.102-.579-6.957-4.374-6.378-8.475.58-4.102 4.37-6.956 8.476-6.378l46.882 6.619c1.598.226 3.204.448 4.817.666 4.104.556 6.982 4.334 6.427 8.438-.51 3.764-3.728 6.496-7.423 6.496z"/><path d="m18.136 201.127c-3.677 0-6.888-2.706-7.417-6.453-.579-4.101 2.276-7.896 6.378-8.475l46.886-6.62c4.092-.581 7.896 2.275 8.476 6.378.579 4.101-2.276 7.896-6.378 8.475l-46.886 6.62c-.356.05-.71.075-1.059.075z"/><path d="m318.484 190.316c-.232 0-.464-.011-.699-.032-71.971-6.652-151.262-6.662-223.266-.031-4.114.379-7.776-2.656-8.156-6.78-.38-4.125 2.656-7.776 6.781-8.156 72.891-6.715 153.16-6.704 226.022.031 4.124.381 7.159 4.034 6.777 8.159-.359 3.888-3.629 6.809-7.459 6.809z"/><path d="m392.775 201.749c-.35 0-.702-.024-1.059-.075l-45.495-6.421c-4.102-.569-6.968-4.356-6.398-8.459.568-4.104 4.361-6.973 8.459-6.398l2.075.29 43.457 6.136c4.102.579 6.957 4.374 6.378 8.475-.529 3.745-3.74 6.452-7.417 6.452z"/></g><path d="m101.561 79.177c-13.418 5.443-26.513 11.972-39.15 19.598-12.1 76.526-12.571 154.44-1.397 231.106l1.397 9.584c12.638 7.626 25.732 14.155 39.15 19.598l-5.691-45.158c-8.34-66.174-8.039-133.152.896-199.248z" fill="#b6c4cf"/><path d="m311.236 79.177c13.418 5.443 26.513 11.972 39.15 19.598 12.1 76.526 12.571 154.44 1.397 231.106l-1.397 9.584c-12.637 7.626-25.732 14.155-39.15 19.598l5.691-45.158c8.34-66.174 8.039-133.152-.895-199.248z" fill="#b6c4cf"/></svg>