<?xml version="1.0" encoding="iso-8859-1"?>
<!-- Generator: Adobe Illustrator 19.0.0, SVG Export Plug-In . SVG Version: 6.00 Build 0)  -->
<svg version="1.1" id="Capa_1" xmlns="http://www.w3.org/2000/svg" xmlns:xlink="http://www.w3.org/1999/xlink" x="0px" y="0px"
	 viewBox="0 0 512.001 512.001" style="enable-background:new 0 0 512.001 512.001;" xml:space="preserve">
<g>
	<polygon style="fill:#D2D2D2;" points="356.194,118.413 313.03,127.664 301.073,173.534 258.928,215.679 280.506,237.257 
		377.771,139.992 379.48,125.036 	"/>
	<path style="fill:#D2D2D2;" d="M357.744,11.117c-4.122,17.445,4.481,33.44-7.904,45.823l-0.99,34.903l34.903-0.99
		c12.385-12.385,28.378-3.781,45.823-7.904c11.131-2.63,14.855-16.662,6.767-24.75L382.495,4.35
		C374.407-3.738,360.374-0.014,357.744,11.117z"/>
</g>
<path style="fill:#F2C42C;" d="M131.864,447.214l-38.68,32.656c0.852,3.147,1.692,6.14,2.499,8.961
	c4.512,15.741,20.177,25.547,36.309,22.67l22.811-4.07c17.062-3.038,28.554-19.131,25.945-36.264
	c-0.327-2.16-0.654-4.409-0.955-6.736L131.864,447.214z"/>
<path style="fill:#FADC60;" d="M174.624,413.325c26.699,9.019,55.757-5.368,64.777-32.065c4.369-12.934,3.44-26.795-2.618-39.029
	c-6.056-12.235-16.515-21.379-29.449-25.747l7.251-21.47c38.538,13.017,59.3,54.96,46.283,93.497
	c-3.688,10.92-9.735,20.618-17.653,28.535c-5.619,5.62-12.18,10.342-19.51,13.97c-17.659,8.742-37.665,10.084-56.334,3.779
	L174.624,413.325z"/>
<g>
	<path style="fill:#F2C42C;" d="M172.44,344.249c-0.014-0.015,0.065,0.078,0.061,0.096c-0.001,0.021-0.018,0.039,0.07,0.166
		c4.33,6.276,10.131,11.896,16.582,15.955c6.522,4.105,13.368,5.898,21.027,5.222c3.735-0.33,7.03,2.431,7.36,6.166
		c0.263,2.98-1.453,5.684-4.05,6.821c-7.577,3.317-15.955,4.609-24.178,3.68c-13.45-1.521-28.265-7.559-38.631-16.372
		c-0.154-0.13-0.148-0.114-0.163-0.129c-5.966-6.053-5.895-15.797,0.159-21.764C156.73,338.124,166.474,338.194,172.44,344.249z"/>
	<path style="fill:#F2C42C;" d="M207.335,316.482c11.722,3.959,21.399,11.851,27.62,22.402l16.359-16.359
		c-8.705-12.427-21.284-22.296-36.728-27.513L207.335,316.482z"/>
	<path style="fill:#F2C42C;" d="M174.624,413.325l-7.251,21.469c11.732,3.963,23.992,4.901,35.866,2.884
		c-0.34-7.364-0.386-15.212,0.06-23.203C194.13,416.77,184.226,416.568,174.624,413.325z"/>
</g>
<path style="fill:#C86D5C;" d="M125.494,281.288l-31.387,31.387c-31.611,31.611-14.389,117.619-0.923,167.195l86.609-15.44
	c-5.173-39.437-5.903-100.903,30.265-137.071l66.369-66.369c19.619-19.619,29.226-47.122,26.092-74.688l-1.448-12.767
	L125.494,281.288z"/>
<path style="fill:#9E9E9E;" d="M353.236,98.793l2.957,19.622l21.578,21.578c4.602,4.602,12.062,4.602,16.664,0
	c4.602-4.602,4.602-12.062,0-16.664l-21.578-21.578L353.236,98.793z"/>
<polygon style="fill:#B8B8B8;" points="349.841,56.941 383.753,90.853 163.059,311.547 125.494,281.288 "/>
<path style="fill:#D2D2D2;" d="M215.902,220.49l-91.584,91.584c-9.406,9.406-9.406,24.656,0,34.062l0,0
	c9.406,9.406,24.656,9.406,34.062,0l91.584-91.584c9.406-9.406,9.406-24.656,0-34.062l0,0
	C240.559,211.084,225.309,211.084,215.902,220.49z"/>
<path style="fill:#9E9E9E;" d="M120.007,211.563c-5.004,0-9.152,3.873-9.485,8.866c-0.996,14.984-6.099,43.872-30.556,45.665
	c-5.027,0.369-8.819,4.737-8.654,9.774c0.169,5.123,4.371,9.189,9.497,9.188c10.096,0,21.935-2.151,30.962,3.441
	c3.652,2.262,6.91,5.139,9.899,8.208c4.365,4.484,7.362,10.392,11.704,14.735c8.235,8.235,21.676,8.092,29.731-0.429
	c7.793-8.245,7.19-21.327-0.856-29.324c-23.05-22.913-34.223-23.208-32.736-36.584v-24.035
	C129.515,215.819,125.258,211.563,120.007,211.563z"/>
<g>
</g>
<g>
</g>
<g>
</g>
<g>
</g>
<g>
</g>
<g>
</g>
<g>
</g>
<g>
</g>
<g>
</g>
<g>
</g>
<g>
</g>
<g>
</g>
<g>
</g>
<g>
</g>
<g>
</g>
</svg>
