<svg id="horse_x5F_pose6" enable-background="new 0 0 300 300" height="512" viewBox="0 0 300 300" width="512" xmlns="http://www.w3.org/2000/svg"><g><path d="m101.716 53.408c-.014 0-.026 0-.039 0-2.194-.021-3.962-1.786-3.962-3.98 0-.498.136-12.254 11.925-18.149 1.975-.987 4.378-.188 5.367 1.789.987 1.976.187 4.379-1.789 5.367-7.278 3.639-7.497 10.73-7.503 11.031-.042 2.18-1.824 3.942-3.999 3.942z" fill="#4c241d"/><circle cx="162" cy="144" fill="#e5efef" r="86"/><g><path d="m123.918 253.433 21.511-29.147 7.099-10.649c1.705-2.558 2.615-5.563 2.615-8.637v-9.857l14.571-19.429-19.429-14.571-14.571 9.714 4.857 34-4.857 24.286-14.571 29.143" fill="#e7d1c4"/><path d="m121.14 262.286c-.602 0-1.212-.136-1.786-.423-1.976-.988-2.776-3.391-1.789-5.367l14.332-28.663 4.618-23.089-4.761-33.321c-.218-1.525.459-3.04 1.741-3.894l14.571-9.714c1.409-.94 3.261-.89 4.619.128l19.429 14.571c1.767 1.326 2.125 3.833.8 5.6l-13.771 18.362v8.523c0 3.876-1.137 7.63-3.287 10.856l-7.1 10.648c-.035.053-.072.105-.109.156l-21.511 29.147c-.183.248-.389.468-.612.66l-1.803 3.607c-.701 1.403-2.114 2.213-3.581 2.213zm18.891-89.499 4.501 31.504c.063.449.052.906-.038 1.351l-3.614 18.07 1.273-1.725 7.047-10.569c1.271-1.907 1.943-4.127 1.943-6.419v-9.856c0-.865.28-1.708.8-2.4l12.172-16.229-13.965-10.473z" fill="#4c241d"/></g><g><path d="m74.286 259.143 9.714-14.572-12-78.571 16.857 15.428-4.857 63.143" fill="#e7d1c4"/><path d="m74.282 263.143c-.763 0-1.533-.218-2.215-.672-1.838-1.225-2.335-3.708-1.109-5.547l8.854-13.282-11.766-77.039c-.256-1.677.573-3.333 2.069-4.132 1.497-.799 3.335-.567 4.585.578l16.857 15.429c.907.83 1.383 2.031 1.288 3.257l-4.856 63.134c-.002.023-.004.046-.006.069-.065.71-.313 1.361-.693 1.91l-9.676 14.514c-.77 1.156-2.039 1.781-3.332 1.781zm3.385-86.534 5.021 32.874 2.032-26.419z" fill="#4c241d"/></g><path d="m91.998 272c-.921 0-1.847-.316-2.602-.963-1.677-1.438-1.871-3.963-.434-5.64l12-14c1.438-1.676 3.962-1.871 5.641-.434 1.677 1.438 1.871 3.963.434 5.64l-12 14c-.791.923-1.912 1.397-3.039 1.397z" fill="#4c241d"/><path d="m171.997 274.001c-.602 0-1.212-.136-1.786-.423-1.976-.988-2.776-3.391-1.789-5.367l12-24c.989-1.976 3.393-2.775 5.367-1.789 1.976.988 2.776 3.391 1.789 5.367l-12 24c-.701 1.401-2.114 2.212-3.581 2.212z" fill="#4c241d"/><g><path d="m187.029 126h16.719c8.976 0 16.252 7.276 16.252 16.252v53.748l3.143 18.571-11.444-14.305c-5.168-6.461-7.984-14.488-7.984-22.761v-37.062c0-5.065-3.178-9.585-7.944-11.299z" fill="#e7d1c4"/><path d="m223.145 218.572c-1.188 0-2.348-.529-3.125-1.501l-11.444-14.305c-5.715-7.142-8.861-16.113-8.861-25.26v-37.062c0-3.367-2.129-6.395-5.298-7.535l-8.741-3.144c-1.829-.658-2.921-2.536-2.587-4.451s1.996-3.313 3.94-3.313h16.719c11.167 0 20.252 9.085 20.252 20.252v53.412l3.088 18.24c.304 1.797-.646 3.573-2.309 4.318-.527.234-1.084.349-1.634.349zm-19.316-88.572c2.448 2.846 3.886 6.529 3.886 10.442v37.062c0 7.337 2.524 14.534 7.107 20.262l1.801 2.251-.567-3.351c-.038-.219-.056-.443-.056-.666v-53.748c0-6.729-5.452-12.209-12.171-12.252z" fill="#4c241d"/></g><g><path d="m188.153 183.994c-.037-4.383 1.476-8.624 3.782-12.351 4.779-7.728 13.007-25.054 2.066-39.643-14.572-19.429-43.714-9.714-43.714-9.714s-28.73 7.815-45.167-8.097c-3.405-3.296-5.118-7.979-5.118-12.718v-22.899l21.143 9.714c2.513 2.513 6.696 2.099 8.667-.858l3.343-5.015c1.489-2.234 1.195-5.208-.704-7.106l-16.164-16.164v-1.406c0-5.018-3.055-9.531-7.714-11.394l-6.857-2.743v-13.6c-6.994 3.497-8.945 9.496-9.493 12.59-2.886.601-5.607 2.019-7.804 4.178-10.022 9.848-28.419 27.232-28.419 47.232v40.318c0 11.153 3.329 22.052 9.562 31.302l26.438 39.237 12 49.143 2.572-63.714s4.857-4.857 0-14.572c0 0 24.286 4.857 43.714-4.857l30.37 34.708c2.338 2.672 3.615 6.11 3.587 9.661l-.243 30.774 12.427-30.351c1.409-3.44.97-7.331-1.139-10.392-3.083-4.472-7.056-12.016-7.135-21.263z" fill="#bf7e68"/><path d="m103.997 258c-1.824 0-3.442-1.246-3.883-3.051l-11.831-48.449-26.039-38.646c-6.702-9.947-10.244-21.544-10.244-33.536v-40.318c0-21.043 17.926-38.622 28.636-49.125l.979-.96c2.075-2.041 4.555-3.583 7.271-4.539 1.22-4.042 4.126-9.496 11.041-12.954 1.24-.621 2.714-.555 3.892.175 1.18.729 1.897 2.017 1.897 3.403v10.892l4.342 1.737c6.136 2.454 10.128 8.266 10.228 14.855l14.994 14.994c3.235 3.234 3.741 8.345 1.205 12.152l-3.345 5.016c-1.606 2.41-4.181 3.956-7.063 4.242-2.615.259-5.183-.547-7.166-2.227l-14.911-6.85v16.66c0 3.856 1.422 7.444 3.9 9.844 14.172 13.718 39.611 7.55 41.259 7.131 2.585-.834 32.3-9.834 48.041 11.154 12.583 16.778 2.889 36.462-1.863 44.146-2.11 3.413-3.211 6.945-3.184 10.214.068 8.118 3.533 14.828 6.428 19.027 2.889 4.191 3.467 9.491 1.549 14.177l-12.428 30.351c-.728 1.775-2.607 2.783-4.49 2.406-1.88-.378-3.227-2.036-3.212-3.953l.242-30.773c.021-2.574-.901-5.059-2.597-6.996l-28.398-32.455c-13.562 5.799-28.458 5.576-36.818 4.795.98 5.441-.682 9.208-1.909 11.122l-2.522 62.5c-.081 1.992-1.615 3.621-3.6 3.819-.135.013-.268.02-.401.02zm-6.282-219.038c-.923 1.625-1.354 3.192-1.555 4.325-.285 1.611-1.521 2.885-3.123 3.219-2.197.458-4.208 1.534-5.814 3.114l-.985.967c-9.814 9.623-26.238 25.729-26.238 43.413v40.318c0 10.394 3.07 20.445 8.879 29.066l26.438 39.238c.264.392.456.828.568 1.287l5.263 21.553 1.427-35.337c.044-1.077.329-1.912 1.121-2.625.349-.448 2.494-3.604-.702-9.997-.683-1.366-.528-3.002.399-4.217.928-1.213 2.46-1.793 3.963-1.494.226.045 23.213 4.45 41.141-4.512 1.63-.815 3.6-.425 4.8.943l30.37 34.708c2.986 3.415 4.611 7.792 4.575 12.327l-.079 10.019 4.562-11.143c.892-2.178.618-4.647-.731-6.606-3.529-5.12-7.755-13.354-7.841-23.5-.04-4.779 1.474-9.79 4.379-14.489 11.255-18.199 6.252-29.827 2.268-35.139-12.694-16.927-38.985-8.408-39.249-8.319-.07.023-.143.045-.215.065-1.262.343-31.134 8.212-49-9.083-4.027-3.9-6.336-9.583-6.336-15.593v-22.899c0-1.363.694-2.632 1.841-3.368 1.149-.735 2.591-.836 3.829-.267l21.144 9.714c.431.198.823.471 1.158.806.474.475 1.025.498 1.314.47.287-.028.824-.16 1.196-.718l3.344-5.015c.43-.645.344-1.51-.204-2.058l-16.164-16.164c-.75-.75-1.172-1.768-1.172-2.829v-1.406c0-3.402-2.041-6.417-5.2-7.68l-6.856-2.743c-1.519-.607-2.515-2.078-2.515-3.714z" fill="#4c241d"/></g></g></svg>