<svg id="Capa_1" enable-background="new 0 0 512 512" height="512" viewBox="0 0 512 512" width="512" xmlns="http://www.w3.org/2000/svg"><path d="m404.396 82.579v57.766c0 6.788 5.503 12.291 12.291 12.291h15.152c6.788 0 12.291-5.503 12.291-12.291v-57.766c15.083 0 27.217-12.621 26.418-27.879-.719-13.724-12.238-24.806-25.979-25.029-6.809-.111-13.037 2.355-17.783 6.482-1.451 1.262-3.595 1.262-5.046 0-4.746-4.128-10.975-6.593-17.784-6.482-13.741.224-25.26 11.306-25.978 25.03-.798 15.257 11.336 27.878 26.418 27.878z" fill="#efe0db"/><path d="m470.548 54.7c-.536-10.234-7.081-18.992-16.072-22.881 2.503 3.789 4.083 8.228 4.333 13.002.688 13.142-8.219 24.328-20.341 27.177-3.564.838-6.078 4.024-6.078 7.685v50.782c0 6.788-5.503 12.291-12.291 12.291h-15.152c-.106 0-.209-.013-.315-.016 1.115 5.64 6.086 9.894 12.053 9.894h15.152c6.788 0 12.291-5.503 12.291-12.291v-57.764c15.084 0 27.219-12.622 26.42-27.879z" fill="#dfd1cb"/><path d="m512 257.031c0 48.456-39.281 87.737-87.737 87.737s-87.737-39.281-87.737-87.737 39.281-136.953 87.737-136.953 87.737 88.497 87.737 136.953z" fill="#fdb1b9"/><path d="m443.88 124.879c18.526 29.41 30.241 67.811 30.241 94.273 0 48.456-39.281 87.737-87.737 87.737-14.467 0-28.103-3.523-40.133-9.725 14.57 28.264 44.023 47.604 78.012 47.604 48.456 0 87.737-39.281 87.737-87.737 0-41.712-29.109-113.09-68.12-132.152z" fill="#fc8086"/><path d="m368.939 249.138c-28.723-11.346-53.814-30.333-71.623-55.563-20.869-29.565-55.298-48.873-94.239-48.873-56.715 0-103.865 40.957-113.485 94.907-.012.066-.023.134-.035.203-3.104 18.473-14.816 34.298-31.537 42.742-35.569 17.963-59.586 55.463-57.94 98.4 2.165 56.453 49.103 101.455 105.597 101.378 14.176-.019 27.695-2.836 40.037-7.926 20.355-8.394 42.283-12.295 64.3-12.295h2.839c21.952 0 43.618 4.375 64.119 12.223 14.264 5.46 29.817 8.313 46.079 7.97 63.864-1.345 115.434-51.146 118.848-114.933 2.781-51.973-27.078-97.314-70.923-117.37-.642-.292-1.322-.58-2.037-.863z" fill="#fa4954"/><path d="m379.399 254.267c10.716 19.284 16.356 41.776 15.077 65.681-3.413 63.787-54.983 113.589-118.848 114.933-16.262.342-31.815-2.51-46.079-7.97-20.501-7.848-42.167-12.223-64.119-12.223h-2.839c-22.018 0-43.945 3.901-64.3 12.295-12.343 5.09-25.862 7.906-40.037 7.926-16.897.023-32.938-3.99-47.183-11.132 17.407 34.763 53.47 58.612 94.607 58.556 14.176-.019 27.695-2.836 40.037-7.926 20.355-8.394 42.283-12.295 64.3-12.295h2.839c21.952 0 43.618 4.375 64.119 12.223 14.264 5.46 29.817 8.312 46.079 7.97 63.864-1.345 115.434-51.146 118.848-114.933 2.598-48.57-23.313-91.343-62.501-113.105z" fill="#e21f2d"/><path d="m284.583 355.136h-36.943c-15.239 0-27.637-12.398-27.637-27.637 0-11.525-4.488-22.36-12.637-30.509l-11.651-11.651c21.409-6.557 37.024-26.502 37.024-50.03 0-10.69-3.204-20.971-9.267-29.735-2.437-3.521-7.267-4.402-10.789-1.965-3.522 2.436-4.402 7.267-1.965 10.789 4.26 6.158 6.512 13.389 6.512 20.911 0 19.621-15.432 35.701-34.795 36.75l-23.276-23.276c-3.028-3.028-7.938-3.028-10.966 0-3.029 3.028-3.029 7.938 0 10.966l48.207 48.207c5.22 5.22 8.094 12.16 8.094 19.542 0 23.791 19.355 43.146 43.146 43.146h36.943c4.283 0 7.754-3.472 7.754-7.755 0-4.281-3.472-7.753-7.754-7.753z" fill="#fc8186"/><path d="m87.674 354.642h-17.748c-4.283 0-7.755-3.472-7.755-7.755s3.472-7.754 7.755-7.754h17.748c14.49 0 28.369-4.467 40.138-12.919l14.103-10.127c3.478-2.499 8.324-1.703 10.821 1.776 2.498 3.478 1.703 8.323-1.776 10.821l-14.102 10.127c-14.421 10.357-31.429 15.831-49.184 15.831z" fill="#fc8186"/><circle cx="317.351" cy="361.042" fill="#efe0db" r="42.355"/><path d="m334.655 322.385c2.369 5.285 3.698 11.138 3.698 17.304 0 23.392-18.963 42.355-42.355 42.355-6.167 0-12.019-1.329-17.304-3.698 6.619 14.762 21.431 25.051 38.657 25.051 23.392 0 42.355-18.963 42.355-42.355 0-17.226-10.289-32.039-25.051-38.657z" fill="#dfd1cb"/></svg>