<svg height="503pt" viewBox="-72 0 503 503.918" width="503pt" xmlns="http://www.w3.org/2000/svg"><g fill="#aab2bd"><path d="m136.996094 358.636719c-7.984375 7.984375-20.765625 9.410156-30.285156 2.800781-2.21875-1.566406-4.144532-3.449219-5.738282-5.597656-1.3125-1.769532-.910156-4.304688.832032-5.585938 1.777343-1.328125 4.28125-.945312 5.59375.832032 1.09375 1.472656 2.40625 2.753906 3.902343 3.808593 7.046875 4.902344 16.839844 3.054688 21.832031-4.046875l9.601563-13.914062c2.414063-3.464844 3.328125-7.632813 2.566406-11.757813-.734375-4.113281-3.054687-7.671875-6.503906-10.042969-1.785156-1.230468-3.769531-2.109374-5.761719-2.558593-2.148437-.496094-3.503906-2.632813-3.015625-4.792969.480469-2.152344 2.625-3.503906 4.792969-3.015625 3.015625.6875 5.878906 1.953125 8.519531 3.777344 5.207031 3.574219 8.714844 8.976562 9.839844 15.199219 1.144531 6.230468-.230469 12.542968-3.871094 17.75l-9.589843 13.90625c-.816407 1.175781-1.730469 2.253906-2.714844 3.238281zm0 0"/><path d="m128.902344 348.636719c-.90625.914062-2.25 1.371093-3.609375 1.097656l-14.144531-2.832031c-2.167969-.433594-3.566407-2.535156-3.144532-4.703125.425782-2.152344 2.527344-3.570313 4.707032-3.144531l14.148437 2.832031c2.167969.4375 3.5625 2.542969 3.136719 4.710937-.160156.800782-.558594 1.503906-1.09375 2.039063zm0 0"/><path d="m29.574219 272.605469c-6.191407 6.191406-9.457031 7.832031-11.417969 8.527343-1.289062.488282-2.390625.671876-3.464844.863282-3.328125.601562-7.109375 1.28125-13.039062 7.21875-.007813.007812-.015625.015625-.023438.023437-1.5585935 1.558594-1.5585935 4.097657 0 5.65625 1.558594 1.558594 4.097656 1.558594 5.65625 0 .007813-.015625.015625-.015625.023438-.03125 4.167968-4.160156 6.121094-4.511719 8.816406-5 1.257812-.226562 2.585938-.519531 4.015625-.992187h14.113281c1.101563 0 2.101563-.449219 2.832032-1.167969.71875-.730469 1.167968-1.730469 1.167968-2.832031 0-2.210938-1.800781-4-4-4l-1.800781.007812c.902344-.839844 1.800781-1.648437 2.777344-2.617187 1.558593-1.566407 1.558593-4.097657 0-5.65625-1.5625-1.558594-4.097657-1.558594-5.65625 0zm0 0"/><path d="m277.230469 13.652344c-3.128907 3.136718-3.128907 8.1875 0 11.320312l5.65625 5.65625 11.308593-11.320312-5.65625-5.65625c-3.117187-3.125-8.183593-3.132813-11.308593 0zm0 0"/></g><path d="m148.691406 210.054688-28.269531-28.28125 5.648437-5.648438 173.78125-173.789062c3.105469-3.113282 8.195313-3.113282 11.304688 0l5.671875 5.652343c3.113281 3.121094 3.167969 8.152344-.007813 11.320313l.058594.058594-87.5625 87.566406 5.585938 5.601562c3.125 3.109375 3.167968 8.144532 0 11.3125l-5.65625 5.65625-74.890625 74.886719zm0 0" fill="#ccd1d9"/><path d="m148.691406 210.054688 5.65625-5.65625 74.890625-74.886719 5.65625-5.65625c3.167969-3.167969 3.125-8.203125 0-11.3125l-5.585937-5.601563-91.917969 91.800782zm0 0" fill="#aab2bd"/><path d="m35.574219 266.621094c-12.511719 12.503906-12.503907 32.761718-.007813 45.257812 5.488282 5.496094 12.445313 8.597656 19.566406 9.277344 9.167969.792969 18.671876-2.261719 25.6875-9.277344l5.65625-5.65625-45.246093-45.257812zm0 0" fill="#e6e9ed"/><path d="m86.488281 306.222656-45.253906-45.265625 50.910156-50.898437 45.253907 45.265625zm0 0" fill="#e6e9ed"/><path d="m97.789062 362.789062-39.59375-39.589843-3.0625-2.035157c9.167969.792969 18.671876-2.261718 25.6875-9.277343l56.5625-56.5625-45.257812-45.261719 5.65625-5.65625 22.640625-22.625 28.269531 28.28125 5.785156 5.777344s-11.441406 22.511718 11.089844 45.039062zm0 0" fill="#ccd1d9"/><path d="m80.820312 255.316406c-3.128906 3.121094-3.128906 8.1875-.007812 11.304688 3.128906 3.128906 8.183594 3.128906 11.3125 0l28.289062-28.277344-11.304687-11.320312zm0 0" fill="#ccd1d9"/><path d="m248.421875 314.074219 33.929687 33.9375-16.972656 16.96875-33.929687-33.9375zm0 0" fill="#f6bb42"/><path d="m265.398438 364.988281c4.636718 4.648438 12.335937 4.640625 16.964843.007813 4.699219-4.695313 4.640625-12.34375 0-16.972656zm0 0" fill="#fc6e51"/><path d="m251.269531 316.910156-.015625.007813c-.023437.023437-.050781.054687-.074218.070312l-16.902344 16.898438c-1.558594 1.558593-4.097656 1.558593-5.65625 0-1.558594-1.5625-1.558594-4.097657 0-5.65625l16.984375-16.976563c1.566406-1.558594 4.09375-1.558594 5.664062 0 1.558594 1.558594 1.558594 4.097656 0 5.65625zm0 0" fill="#ffce54"/><path d="m305.515625 249.210938 33.933594-33.933594 16.964843 16.964844-33.933593 33.933593zm0 0" fill="#f6bb42"/><path d="m356.429688 232.238281c4.648437-4.640625 4.640624-12.335937.007812-16.96875-4.695312-4.695312-12.335938-4.640625-16.976562 0zm0 0" fill="#fc6e51"/><path d="m308.355469 246.375.007812.015625c.027344.023437.058594.046875.074219.070313l16.894531 16.90625c1.5625 1.558593 1.5625 4.09375 0 5.65625-1.558593 1.558593-4.09375 1.558593-5.65625 0l-16.976562-16.984376c-1.558594-1.570312-1.558594-4.097656 0-5.664062 1.5625-1.570312 4.089843-1.570312 5.65625 0zm0 0" fill="#ffce54"/><path d="m55.652344 320.644531 42.144531 42.144531c-8.992187 32.304688 2.832031 59.402344 34.214844 78.914063l-62.222657 62.214844c-33.9375-44.679688-45.359374-124.328125-17.238281-152.449219zm0 0" fill="#965353"/></svg>