<?xml version="1.0" encoding="iso-8859-1"?>
<!-- Generator: Adobe Illustrator 18.0.0, SVG Export Plug-In . SVG Version: 6.00 Build 0)  -->
<!DOCTYPE svg PUBLIC "-//W3C//DTD SVG 1.1//EN" "http://www.w3.org/Graphics/SVG/1.1/DTD/svg11.dtd">
<svg version="1.1" id="Capa_1" xmlns="http://www.w3.org/2000/svg" xmlns:xlink="http://www.w3.org/1999/xlink" x="0px" y="0px"
	 viewBox="0 0 451.962 451.962" style="enable-background:new 0 0 451.962 451.962;" xml:space="preserve">
<g id="XMLID_40_">
	<g>
		<path style="fill:#4D4D4D;" d="M450.314,48.421c1.16,1.62,1.62,3.63,1.3,5.59c-0.33,1.96-1.42,3.72-3.04,4.87l-184.23,131.63
			c2.06,9.31-1.43,19.38-9.66,25.26l-60.58,43.28c0.78,0.89,1.52,1.81,2.21,2.78c11.01,15.41,7.43,36.91-7.98,47.92
			c-5.95,4.25-12.95,6.38-19.96,6.38c-4.55,0-9.09-0.91-13.35-2.71l-90.69,112.88c-1.42,1.78-3.58,2.81-5.84,2.81
			c-0.07,0-0.14,0-0.22-0.01c-2.34-0.06-4.52-1.22-5.89-3.13l-50.74-71.02c-1.15-1.62-1.62-3.63-1.29-5.59
			c0.32-1.96,1.42-3.71,3.04-4.87l123.77-88.44l-3.21-4.5l-16.96-2.82c-4.09-0.68-6.85-4.55-6.17-8.63
			c0.68-4.09,4.55-6.85,8.63-6.17l16.96,2.82l272.62-194.78l-2.31-3.25c-2.41-3.37-1.63-8.05,1.74-10.46s8.06-1.63,10.46,1.74
			l2.32,3.25l12.58-9c3.37-2.41,8.06-1.62,10.47,1.75L450.314,48.421z M433.754,51.041l-7.31-10.22l-176.54,126.14l7.31,10.22
			L433.754,51.041z M245.964,203.561c4.25-3.04,5.24-8.97,2.21-13.23l-10.47-14.65l-98.99,70.73l15.98,22.36L245.964,203.561z
			 M179.614,297.551c8.68-6.21,10.7-18.32,4.49-27c-0.7-0.98-1.49-1.87-2.34-2.68l-11.57,8.27l0.47,0.13c4,1.08,6.36,5.2,5.28,9.2
			c-0.9,3.34-3.93,5.54-7.23,5.54c-0.65,0-1.31-0.09-1.97-0.27l-6.24-1.69l0.06,10.43
			C166.724,302.201,174.004,301.561,179.614,297.551z M145.564,301.251l-0.1-19.59l-9.58-13.41l-117.67,84.08l40.63,56.87
			L145.564,301.251z"/>
		<polygon style="fill:#B3B3B3;" points="426.444,40.821 433.754,51.041 257.214,177.181 249.904,166.961 		"/>
		<path style="fill:#999999;" d="M248.174,190.331c3.03,4.26,2.04,10.19-2.21,13.23l-91.27,65.21l-15.98-22.36l98.99-70.73
			L248.174,190.331z"/>
		<polygon style="fill:#E29E30;" points="145.464,281.661 145.564,301.251 58.844,409.201 18.214,352.331 135.884,268.251 		"/>
	</g>
	<g>
	</g>
</g>
<g>
</g>
<g>
</g>
<g>
</g>
<g>
</g>
<g>
</g>
<g>
</g>
<g>
</g>
<g>
</g>
<g>
</g>
<g>
</g>
<g>
</g>
<g>
</g>
<g>
</g>
<g>
</g>
<g>
</g>
</svg>
