<svg height="511pt" viewBox="0 0 511.56448 511" width="511pt" xmlns="http://www.w3.org/2000/svg"><path d="m113.59375 368.273438-16.957031-20.59375c-6.207031-7.582032-5.132813-18.753907 2.410156-25.007813l315.320313-259.949219zm0 0" fill="#7f5b53"/><path d="m169.632812 310.550781-11.300781-13.710937c-6.207031-7.582032-5.128906-18.75 2.410157-25.007813l253.625-209.109375c13.421874-11.101562 23.171874-26.003906 27.96875-42.75l-.046876-.0625c1.445313-4.957031 2.421876-10.042968 2.914063-15.183594l.203125-2.125c8.976562-7.40625 30.085938 3.53125 47.261719 24.363282 17.179687 20.832031 23.890625 43.632812 14.910156 51.039062l-2.125-.203125c-5.140625-.484375-10.316406-.484375-15.457031 0l-.035156-.105469c-17.363282 1.503907-33.863282 8.222657-47.335938 19.28125l-95.964844 79.148438zm0 0" fill="#95a5a5"/><path d="m96.636719 347.679688c-19.414063 9.652343-34.523438 26.203124-42.371094 46.414062-9.707031 20.339844-27.179687 35.925781-48.492187 43.257812-4.082032 1.480469-6.464844 5.734376-5.59375 9.992188 2.523437 12.355469 12.878906 37.269531 54.148437 63.027344 4.082031 2.613281 9.503906 1.492187 12.214844-2.523438 15.640625-23.421875 25.410156-50.269531 28.480469-78.265625 4.808593-50.027343 18.535156-61.324219 18.535156-61.324219zm0 0" fill="#59474e"/><path d="m184.964844 355.535156 10.507812 14.300782c6.222656 7.5625 5.160156 18.734374-2.386718 24.980468l-20.566407 16.949219c-3.621093 3.023437-8.296875 4.46875-12.988281 4.019531-4.691406-.445312-9.011719-2.75-11.992188-6.402344l-22.601562-27.363281zm0 0" fill="#7f5b53"/><path d="m346.660156 176.125c4.496094 5.453125 6.644532 12.46875 5.964844 19.503906-.675781 7.039063-4.121094 13.515625-9.574219 18.011719l-118.386719 97.597656c1.058594 6.25-1.296874 12.589844-6.179687 16.632813l-68.546875 56.496094c-7.582031 6.207031-18.75 5.128906-25.007812-2.410157l-16.957032-20.570312 82.253906-67.820313 143.925782-118.652344c1.820312-1.5 4.160156-2.214843 6.503906-1.988281 2.347656.226563 4.507812 1.378907 6.003906 3.199219zm0 0" fill="#59474e"/><path d="m53.480469 346.074219c-3.726563 0-7.050781-2.335938-8.308594-5.839844-1.261719-3.507813-.1875-7.425781 2.683594-9.796875 4.398437-3.046875 7.589843-7.53125 9.03125-12.683594.683593-4.664062 3.789062-8.613281 8.164062-10.371094 4.371094-1.757812 9.347657-1.058593 13.066407 1.835938 5.824218 4.390625 12.40625 7.664062 19.421874 9.664062 3.042969.859376 5.398438 3.285157 6.164063 6.355469.769531 3.070313-.164063 6.316407-2.445313 8.507813-2.285156 2.191406-5.566406 2.996094-8.601562 2.105468-7.074219-2.042968-13.824219-5.074218-20.046875-9.003906-2.980469 6.777344-7.621094 12.695313-13.488281 17.210938-1.585938 1.3125-3.582032 2.027344-5.640625 2.015625zm0 0" fill="#95a5a5"/></svg>