<?xml version="1.0" encoding="iso-8859-1"?>
<!-- Generator: Adobe Illustrator 21.0.0, SVG Export Plug-In . SVG Version: 6.00 Build 0)  -->
<svg xmlns="http://www.w3.org/2000/svg" xmlns:xlink="http://www.w3.org/1999/xlink" version="1.1" id="Capa_1" x="0px" y="0px" viewBox="0 0 512 512" style="enable-background:new 0 0 512 512;" xml:space="preserve" width="512" height="512">
<g>
	<path style="fill:#F57C7C;" d="M511.81,192.553c0,7.408,0.795,72.092-0.864,79.448c-8.307,37.166-36.296,71.776-70.631,84.532   c-42.414,15.765-93.352,5.986-131.338,30.396c-30.665,19.711-45.701,57.629-76.708,76.814   c-40.63,25.141-95.105,9.768-134.594-17.104C48.52,413.194,10.772,361.603,0.651,303.459c-1.804-10.366,0.705-84.624,0.799-95.164   c0.384-48.355,16.457-64.059,54.236-64.059h390.156C500.167,144.235,511.81,185.145,511.81,192.553z"/>
	<path style="fill:#EF6161;" d="M511.81,192.553c0,7.408,0.795,72.092-0.864,79.448c-8.307,37.166-36.296,71.776-70.631,84.532   c-42.414,15.765-93.352,5.986-131.338,30.396c-30.665,19.711-45.701,57.629-76.708,76.814   c-40.63,25.141-95.105,9.768-134.594-17.104C48.52,413.194,10.772,361.603,0.651,303.459c-1.804-10.366,0.705-84.624,0.799-95.164   c0.384-48.355,16.457-64.059,54.236-64.059h390.156C500.167,144.235,511.81,185.145,511.81,192.553z"/>
	<path style="fill:#F57C7C;" d="M397.227,56.714c-47.623-18.547-99.833-20.907-150.93-21.195   c-65.67-0.37-136.716,4.252-187.197,46.315C13.805,119.574-5.908,183.485,4.088,241.635s47.26,109.738,95.801,143.187   c38.989,26.867,92.78,42.24,132.902,17.101c30.615-19.183,45.46-57.108,75.741-76.815c37.509-24.411,87.807-14.633,129.682-30.393   c47.317-17.808,82.45-78.196,69.548-128.691C495.246,117.04,441.965,74.138,397.227,56.714z"/>
	<g>
		<path style="fill:#EF6161;" d="M507.762,166.023c-12.515-48.983-65.797-91.885-110.535-109.309    c-5.089-1.982-10.234-3.769-15.421-5.398c40.818,21.899,83.955,63.483,95.05,110.213c12.902,54.338-22.231,119.32-69.548,138.483    c-3.816,1.545-7.704,2.858-11.643,3.995c14.585-1.775,29.008-4.197,42.549-9.293C485.531,276.906,520.663,216.519,507.762,166.023    z"/>
	</g>
	<path style="fill:#FFCFC9;" d="M142.023,248.396c24.033-16.574,51.431-28.315,73.494-47.434   c26.068-22.589,42.782-53.752,62.306-82.19c19.524-28.438,44.416-56.026,77.758-64.852c5.775-1.529,12.252-3.006,18.395-4.936   c-26.698-7.482-54.487-10.822-82.445-12.31c-10.629,7.911-20.428,16.935-29.147,26.913c-23.873,27.318-64.548,62.285-77.891,64.539   c-10.144,1.713-17.122-59.062-19.885-88.304c-7.884,1.101-15.692,2.462-23.38,4.145c-1.464,22.828-10.36,45.945-23.388,64.97   c-22.845,33.363-56.298,57.629-86.853,84.11c-10.149,8.796-20.218,18.247-29.15,28.484c0.373,6.744,1.108,13.462,2.249,20.103   c7.179,41.764,28.424,80.141,57.81,110.846C77.391,310.792,105.383,273.665,142.023,248.396z"/>
	<path style="fill:#FFCFC9;" d="M501.952,149.52c-15.524-2.401-29.614,0-46.984-2.009c-21.09-5.539-12.168-40.327-2.719-58.585   c-9.545-7.618-19.632-14.39-29.746-20.112c-4.991,12.7-12.784,24.606-21.734,34.899c-17.786,20.456-40.118,36.418-59.272,55.598   c-52.219,52.292-78.412,129.322-69.301,202.616c10.857-13.745,21.823-27.375,36.336-36.819c2.012-1.309,4.068-2.502,6.15-3.623   c4.535-38.893,19.482-76.59,43.175-107.783c5.529-7.279,13.772-14.96,22.53-12.349c6.51,1.941,10.21,9.202,10.34,15.996   c0.13,6.794-2.489,13.293-4.837,19.67c-8.273,22.473-13.62,46.018-15.905,69.857c14.784-1.736,29.831-2.928,44.392-5.686   c1.613-26.468,11.21-52.452,27.418-73.456c17.129-22.197,41.506-38.658,68.413-46.473c-0.371-5.141-1.17-10.237-2.447-15.235   C506.333,160.433,504.369,154.923,501.952,149.52z"/>
	<g>
		<path style="fill:none;" d="M441.795,227.731c-15.264,19.78-24.658,43.977-27.049,68.836    c34.333-17.852,60.785-59.631,64.38-101.754C464.781,203.349,451.996,214.512,441.795,227.731z"/>
		<path style="fill:none;" d="M454.968,147.511c6.326,0.732,12.214,0.876,17.897,0.883c-5.882-15.918-15.274-31.037-26.705-44.749    C440.286,121.684,438.744,143.25,454.968,147.511z"/>
		<path style="fill:#FAB2B2;" d="M479.126,194.813c9.743-5.797,20.199-10.394,31.082-13.555c-0.371-5.141-1.17-10.237-2.447-15.235    c-1.428-5.59-3.393-11.1-5.81-16.503c-9.87-1.527-19.164-1.114-29.087-1.126c1.598,4.324,2.94,8.706,3.991,13.135    C479.426,172.35,480.084,183.594,479.126,194.813z"/>
		<path style="fill:#FFCFC9;" d="M414.746,296.567c-2.442,1.27-4.922,2.426-7.438,3.445c-3.808,1.542-7.687,2.852-11.618,3.988    c6.278-0.766,12.527-1.646,18.687-2.813C414.471,299.645,414.598,298.105,414.746,296.567z"/>
		<path style="fill:#FAB2B2;" d="M446.16,103.645c1.762-5.41,3.909-10.507,6.089-14.72c-9.545-7.618-19.632-14.39-29.746-20.112    c-1.037,2.64-2.202,5.242-3.467,7.806C428.769,84.755,437.985,93.839,446.16,103.645z"/>
	</g>
</g>















</svg>
