<?xml version="1.0" encoding="iso-8859-1"?>
<!-- Generator: Adobe Illustrator 19.0.0, SVG Export Plug-In . SVG Version: 6.00 Build 0)  -->
<svg version="1.1" id="Capa_1" xmlns="http://www.w3.org/2000/svg" xmlns:xlink="http://www.w3.org/1999/xlink" x="0px" y="0px"
	 viewBox="0 0 512.001 512.001" style="enable-background:new 0 0 512.001 512.001;" xml:space="preserve">
<path style="fill:#994C0F;" d="M300.532,501.05c-8.226,0.001-15.255-6.258-16.051-14.612c-0.845-8.874,5.664-16.754,14.539-17.6
	c0.268-0.026,27.759-2.72,57.928-10.445c36.666-9.389,61.679-22.167,70.431-35.979c3.883-6.128,4.389-12.265,1.639-19.899
	c-2.461-6.839-18.506-9.976-42.914-8.399c-29.627,1.916-67.479,9.902-107.554,18.356c-79.817,16.837-155.205,32.741-189.674,6.59
	c-11.027-8.366-17.361-20.567-18.317-35.285c-1.667-25.652,15.099-44.699,49.834-56.615c26.528-9.1,63.076-14.443,101.769-20.099
	c58.493-8.551,124.79-18.241,175.536-42.839c55.957-27.125,82.02-66.645,82.02-124.373c0-8.915,7.227-16.142,16.142-16.142
	s16.142,7.227,16.142,16.142c0,37.204-9.66,69.547-28.712,96.13c-16.723,23.334-40.114,42.074-71.51,57.294
	c-55.229,26.772-124.145,36.846-184.948,45.734c-37.166,5.432-72.272,10.564-95.963,18.691
	c-29.005,9.95-28.366,19.785-28.093,23.984c0.445,6.858,3.088,9.742,5.614,11.658c6.379,4.839,22.012,9.8,60.268,5.947
	c30.582-3.08,67.515-10.871,103.231-18.405c41.241-8.7,80.194-16.917,112.134-18.984c15.634-1.011,63.213-4.089,75.374,29.679
	c6.104,16.955,4.46,33.599-4.755,48.133c-13.603,21.453-43.923,38.299-90.115,50.069c-32.537,8.29-61.236,11.083-62.443,11.198
	C301.561,501.026,301.044,501.05,300.532,501.05z"/>
<path style="fill:#BF6015;" d="M256,268.75c-66.393,0-129.065-12.274-176.473-34.559C28.244,210.081,0,176.577,0,139.85
	s28.244-70.231,79.527-94.34C126.935,23.224,189.606,10.951,256,10.951S385.066,23.224,432.472,45.51
	c51.284,24.108,79.527,57.612,79.527,94.34s-28.243,70.231-79.527,94.34C385.066,256.476,322.393,268.75,256,268.75z M256,43.235
	c-61.744,0-119.539,11.185-162.738,31.492C54.51,92.944,32.285,116.681,32.285,139.85s22.225,46.906,60.978,65.123
	c43.2,20.308,100.994,31.493,162.738,31.493s119.539-11.185,162.738-31.493c38.753-18.217,60.978-41.954,60.978-65.123
	s-22.225-46.906-60.978-65.123C375.539,54.42,317.744,43.235,256,43.235z"/>
<g>
	<path style="fill:#713708;" d="M386.104,394.115c24.408-1.577,40.454,1.561,42.914,8.399c2.749,7.633,2.243,13.77-1.639,19.899
		c-8.752,13.814-33.764,26.592-70.431,35.979c-30.17,7.725-57.66,10.419-57.928,10.445c-8.874,0.845-15.384,8.725-14.539,17.6
		c0.795,8.355,7.825,14.613,16.051,14.612c0.512,0,1.029-0.024,1.549-0.073c1.207-0.115,29.905-2.908,62.443-11.198
		c46.192-11.77,76.513-28.616,90.115-50.069c9.215-14.534,10.86-31.178,4.755-48.133c-12.161-33.767-59.74-30.689-75.375-29.678
		c-31.94,2.067-70.893,10.284-112.134,18.984c-5.277,1.113-10.581,2.231-15.887,3.339V417.2c7.456-1.544,14.983-3.132,22.55-4.728
		C318.625,404.017,356.477,396.032,386.104,394.115z"/>
	<path style="fill:#713708;" d="M495.858,123.708c-8.915,0-16.142,7.227-16.142,16.142c0,57.728-26.062,97.248-82.02,124.373
		c-41.156,19.95-92.54,30.093-141.696,37.777v32.67c52.947-8.128,109.225-18.83,155.778-41.396
		c31.396-15.219,54.787-33.96,71.51-57.293C502.34,209.396,512,177.053,512,139.85C512,130.936,504.772,123.708,495.858,123.708z"/>
</g>
<path style="fill:#994C0F;" d="M432.472,45.511C385.066,23.225,322.393,10.952,256,10.952l0,0v32.284l0,0
	c61.744,0,119.539,11.185,162.738,31.492c38.753,18.217,60.978,41.954,60.978,65.123s-22.225,46.906-60.978,65.123
	c-43.2,20.308-100.994,31.493-162.738,31.493l0,0v32.284l0,0c66.393,0,129.066-12.274,176.472-34.559
	c51.284-24.109,79.527-57.613,79.527-94.34S483.756,69.619,432.472,45.511z"/>
<g>
</g>
<g>
</g>
<g>
</g>
<g>
</g>
<g>
</g>
<g>
</g>
<g>
</g>
<g>
</g>
<g>
</g>
<g>
</g>
<g>
</g>
<g>
</g>
<g>
</g>
<g>
</g>
<g>
</g>
</svg>
