<?xml version="1.0" encoding="iso-8859-1"?>
<!-- Generator: Adobe Illustrator 19.0.0, SVG Export Plug-In . SVG Version: 6.00 Build 0)  -->
<svg version="1.1" id="Capa_1" xmlns="http://www.w3.org/2000/svg" xmlns:xlink="http://www.w3.org/1999/xlink" x="0px" y="0px"
	 viewBox="0 0 58 58" style="enable-background: new 0 0 58 58" xml:space="preserve">
<g>
	<polygon style="fill: #cbb292" points="45,48 51,45.8 51,12.1 48,11 51,9.9 51,3 44.1,3 43,6 41.9,3 3,3 3,16.4 10,19 3,21.6 3,54.5 7,56 3,57.5 3,61 13.9,61 15,58 16.1,61 51,61 51,50.3"/>
	<g>
		<g>
			<path style="fill: #cbb292" d="M 27.5 40.5 c -3.9 0 -7.6 -0.7 -10.6 -1.8 c 1.7 7.8 5.8 12 10.6 12 s 8.9 -4.2 10.6 -12 C 35.1 39.9 31.4 40.5 27.5 40.5 z"/>
			<path style="fill: #7f6e5d" d="M 27.5 51.7 c -5.5 0 -9.9 -4.8 -11.6 -12.7 l -0.4 -1.8 l 1.7 0.7 c 3 1.2 6.6 1.8 10.3 1.8 s 7.2 -0.6 10.3 -1.8 l 1.7 -0.7 l -0.4 1.8 C 37.4 46.9 33 51.7 27.5 51.7 z M 18.3 40.2 c 1.7 5.9 5.1 9.4 9.2 9.4 s 7.5 -3.5 9.2 -9.4 C 31 42 24 42 18.3 40.2 z"/>
		</g>
	</g>
	<g>
		<line style="fill:#FFFFFF;" x1="30.172" y1="46.31" x2="27.483" y2="49"/>
		<path style="fill: #7f6e5d" d="M 25.5 53 c -0.3 0 -0.5 -0.1 -0.7 -0.3 c -0.4 -0.4 -0.4 -1 0 -1.4 l 2.7 -2.7 c 0.4 -0.4 1 -0.4 1.4 0 s 0.4 1 0 1.4 l -2.7 2.7 C 26 52.9 25.7 53 25.5 53 z"/>
	</g>
	<g>
		<line style="fill:#FFFFFF;" x1="28.828" y1="46.31" x2="31.517" y2="49"/>
		<path style="fill: #7f6e5d" d="M 29.5 53 c -0.3 0 -0.5 -0.1 -0.7 -0.3 l -2.7 -2.7 c -0.4 -0.4 -0.4 -1 0 -1.4 s 1 -0.4 1.4 0 l 2.7 2.7 c 0.4 0.4 0.4 1 0 1.4 C 30 52.9 29.8 53 29.5 53 z"/>
	</g>
	<path style="fill: #e4c05c" d="M 40.3 29.4 c 0.1 0.2 -0.1 0.5 -0.3 0.6 l -3.1 1.5 c -6.1 3.2 -12.5 3.2 -18.8 0 l -3.1 -1.5 c -0.2 -0.1 -0.3 -0.3 -0.3 -0.6 l 3.4 -14.5 c 0.1 -0.8 0.6 -1.4 1.3 -1.7 c 0.7 -0.3 1.5 -0.2 2.1 0.2 l 2 1.2 c 2.5 1.5 5.5 1.5 8 0 l 2 -1.2 c 0.6 -0.4 1.4 -0.5 2.1 -0.2 c 0.7 0.3 1.2 0.9 1.3 1.7 L 40.3 29.4 z"/>
	<path style="fill: #e6e7e8" d="M 35.6 13.2 c -0.7 -0.3 -1.5 -0.2 -2.1 0.2 l -2 1.2 c -2.5 1.5 -5.5 1.5 -8 0 l -2 -1.2 c -0.6 -0.4 -1.4 -0.5 -2.1 -0.2 c -0.7 0.3 -1.2 0.9 -1.3 1.7 l -2.5 10.7 l 2.5 1.2 c 6.3 3.2 12.7 3.2 18.8 0 l 2.5 -1.2 l -2.5 -10.7 C 36.8 14.1 36.3 13.5 35.6 13.2 z"/>
	<path style="fill: #e6e7e8" d="M 39.9 27.9 l 0.3 1.5 c 0.1 0.2 -0.1 0.5 -0.3 0.6 l -3.1 1.5 c -6.1 3.2 -12.5 3.2 -18.8 0 l -3.1 -1.5 c -0.2 -0.1 -0.3 -0.3 -0.3 -0.6 l 0.3 -1.5 C 10.7 26.4 8 25.6 8 29.1 c 0 6.3 8.7 11.4 19.5 11.4 S 47 35.4 47 29.1 C 47 25.6 44.3 26.4 39.9 27.9 z"
		/>
</g>
</svg>
