<?xml version="1.0" encoding="iso-8859-1"?>
<!-- Generator: Adobe Illustrator 19.0.0, SVG Export Plug-In . SVG Version: 6.00 Build 0)  -->
<svg version="1.1" id="Capa_1" xmlns="http://www.w3.org/2000/svg" xmlns:xlink="http://www.w3.org/1999/xlink" x="0px" y="0px"
	 viewBox="0 0 512 512" style="enable-background:new 0 0 512 512;" xml:space="preserve">
<path style="fill:#CEB341;" d="M291.665,0h-71.329c-14.162,0-25.683,11.321-25.683,25.237v115.592
	c0,7.059,5.722,12.781,12.781,12.781h97.134c7.059,0,12.781-5.722,12.781-12.781V25.237C317.348,11.321,305.827,0,291.665,0z"/>
<path style="fill:#EFD96A;" d="M256,0h-35.665c-14.162,0-25.683,11.321-25.683,25.237v115.592c0,7.059,5.722,12.781,12.781,12.781
	H256V0z"/>
<path style="fill:#F58964;" d="M380.642,146.671L315.537,135.1c-0.876-0.158-1.811-0.1-2.702-0.1H199.166
	c-0.891,0-1.78-0.058-2.656,0.1l-65.151,11.639C97.596,152.815,73,182.054,73,216.358V483.36C73,498.954,85.868,512,101.462,512
	h309.076C426.132,512,439,498.954,439,483.36V216.358C439,182.054,414.404,152.746,380.642,146.671z"/>
<path style="fill:#F9AA62;" d="M256,135h-56.834c-0.891,0-1.78-0.058-2.656,0.1l-65.151,11.639
	C97.596,152.815,73,182.054,73,216.358V483.36C73,498.954,85.868,512,101.462,512H256V135z"/>
<path style="fill:#7D5432;" d="M317.348,25.237C317.348,11.321,305.827,0,291.665,0h-71.329c-14.162,0-25.683,11.321-25.683,25.237
	v62.52h122.696v-62.52H317.348z"/>
<path style="fill:#9C693E;" d="M256,0h-35.665c-14.162,0-25.683,11.321-25.683,25.237v62.52H256V0z"/>
<path style="fill:#DEDEDE;" d="M367,248c0-8.284-6.716-15-15-15H160c-8.284,0-15,6.716-15,15v167c0,8.284,6.716,15,15,15h192
	c8.284,0,15-6.716,15-15V248z"/>
<path style="fill:#F7F7F7;" d="M256,233h-96c-8.284,0-15,6.716-15,15v167c0,8.284,6.716,15,15,15h96V233z"/>
<g>
</g>
<g>
</g>
<g>
</g>
<g>
</g>
<g>
</g>
<g>
</g>
<g>
</g>
<g>
</g>
<g>
</g>
<g>
</g>
<g>
</g>
<g>
</g>
<g>
</g>
<g>
</g>
<g>
</g>
</svg>
